# UnrealEd OBJ exporter (_Internal)



v -3.877156 3.877156 17.281969

v -0.000000 5.483126 17.281969

v -6.273370 6.273370 7.623309

v -0.000000 8.871884 7.623309

v -0.000000 -5.483126 17.281969

v -3.877156 -3.877156 17.281969

v -0.000000 -8.871885 7.623309

v -6.273370 -6.273370 7.623309

v -5.483127 -0.000000 17.281969

v -8.871885 -0.000000 7.623309

v -6.273370 6.273370 -2.882650

v -0.000001 8.871884 -2.882650

v -0.000000 -8.871885 -2.882650

v -6.273370 -6.273370 -2.882650

v -8.871885 0.000000 -2.882650

v -3.877156 3.877156 -12.413294

v -0.000000 5.483126 -12.413294

v -0.000000 -5.483126 -12.413294

v -3.877156 -3.877156 -12.413294

v -5.483127 0.000000 -12.413294

v -0.000000 5.483126 17.281969

v -3.877156 3.877156 17.281969

v -0.000000 -0.000000 17.290882

v -3.877156 -3.877156 17.281969

v -0.000000 -5.483126 17.281969

v -0.000000 -0.000000 17.290882

v -5.483127 -0.000000 17.281969

v -5.483127 -0.000000 17.281969

v -0.000000 0.000000 -19.150057

v 3.876802 3.877156 17.281969

v 6.272798 6.273370 7.623309

v -0.000000 5.483126 17.281969

v -0.000000 8.871884 7.623309

v -0.000000 -5.483126 17.281969

v -0.000000 -8.871885 7.623309

v 3.876803 -3.877156 17.281969

v 6.272798 -6.273370 7.623309

v 5.482627 -0.000000 17.281969

v 8.871077 -0.000000 7.623309

v 6.272798 6.273370 -2.882650

v -0.000001 8.871884 -2.882650

v -0.000000 -8.871885 -2.882650

v 6.272798 -6.273370 -2.882650

v 8.871077 0.000000 -2.882650

v 3.876802 3.877156 -12.413294

v -0.000000 5.483126 -12.413294

v -0.000000 -5.483126 -12.413294

v 3.876803 -3.877156 -12.413294

v 5.482627 0.000000 -12.413294

v -0.000000 5.483126 17.281969

v 3.876802 3.877156 17.281969

v 3.876803 -3.877156 17.281969

v -0.000000 -5.483126 17.281969

v 5.482627 -0.000000 17.281969

v 5.482627 -0.000000 17.281969

v -0.000000 0.000000 -19.150057



vt 0.295166 0.115234

vt 0.361572 0.009277

vt 0.522949 0.283203

vt 0.642090 0.137695

vt 0.008125 0.356445

vt 0.115479 0.291992

vt 0.131836 0.639404

vt 0.279297 0.522705

vt 0.211304 0.209961

vt 0.404785 0.406738

vt 0.710938 0.478027

vt 0.864746 0.369141

vt 0.359375 0.865723

vt 0.471191 0.713867

vt 0.584961 0.589844

vt 0.855957 0.705811

vt 0.972168 0.667969

vt 0.656250 0.978134

vt 0.696289 0.862549

vt 0.763672 0.771484

vt 0.665527 0.014648

vt 0.754883 0.241211

vt 0.982910 0.013184

vt 0.754883 0.241211

vt 0.665527 0.014648

vt 0.982910 0.013184

vt 0.980469 0.336426

vt 0.980469 0.336426

vt 0.938477 0.949371

vt 0.295166 0.115234

vt 0.522949 0.283203

vt 0.361572 0.009277

vt 0.642090 0.137695

vt 0.008125 0.356445

vt 0.131836 0.639404

vt 0.115479 0.291992

vt 0.279297 0.522705

vt 0.211304 0.209961

vt 0.404785 0.406738

vt 0.710938 0.478027

vt 0.864746 0.369141

vt 0.359375 0.865723

vt 0.471191 0.713867

vt 0.584961 0.589844

vt 0.855957 0.705811

vt 0.972168 0.667969

vt 0.656250 0.978134

vt 0.696289 0.862549

vt 0.763672 0.771484

vt 0.665527 0.014648

vt 0.754883 0.241211

vt 0.754883 0.241211

vt 0.665527 0.014648

vt 0.980469 0.336426

vt 0.980469 0.336426

vt 0.938477 0.949371



vn -0.756863 0.568628 0.325490

vn -0.003922 0.937255 0.325490

vn -0.701961 0.694118 0.160784

vn -0.003922 0.992157 0.105882

vn -0.003922 -0.945098 0.325490

vn -0.576471 -0.756863 0.325490

vn -0.003922 -0.976471 0.223529

vn -0.701961 -0.701961 0.160784

vn -0.937255 -0.129412 0.325490

vn -0.992157 -0.003922 0.160784

vn -0.701961 0.694118 -0.176471

vn -0.003922 0.968628 -0.231372

vn -0.003922 -1.000000 -0.121569

vn -0.701961 -0.701961 -0.176471

vn -0.992157 -0.003922 -0.176471

vn -0.576471 0.678432 -0.466667

vn -0.003922 0.866667 -0.498039

vn -0.003922 -0.898039 -0.443137

vn -0.686275 -0.576471 -0.466667

vn -0.890196 0.074510 -0.466667

vn -0.003922 -0.003922 0.992157

vn -0.003922 -0.003922 0.992157

vn -0.003922 -0.003922 1.000000

vn -0.003922 -0.003922 0.992157

vn -0.003922 -0.003922 0.992157

vn -0.003922 -0.003922 1.000000

vn -0.003922 -0.003922 0.992157

vn -0.003922 -0.003922 0.992157

vn -0.003922 -0.003922 -1.000000

vn 0.749020 0.568628 0.325490

vn 0.694118 0.694118 0.160784

vn -0.003922 0.937255 0.325490

vn -0.003922 0.992157 0.105882

vn -0.003922 -0.945098 0.325490

vn -0.003922 -0.976471 0.223529

vn 0.568628 -0.756863 0.325490

vn 0.694118 -0.701961 0.160784

vn 0.929412 -0.129412 0.325490

vn 0.984314 -0.003922 0.160784

vn 0.694118 0.694118 -0.176471

vn -0.003922 0.968628 -0.231372

vn -0.003922 -1.000000 -0.121569

vn 0.694118 -0.701961 -0.176471

vn 0.984314 -0.003922 -0.176471

vn 0.568628 0.678432 -0.466667

vn -0.003922 0.866667 -0.498039

vn -0.003922 -0.898039 -0.443137

vn 0.678432 -0.576471 -0.466667

vn 0.882353 0.074510 -0.466667

vn -0.003922 -0.003922 0.992157

vn -0.003922 -0.003922 0.992157

vn -0.003922 -0.003922 0.992157

vn -0.003922 -0.003922 0.992157

vn -0.003922 -0.003922 0.992157

vn -0.003922 -0.003922 0.992157

vn -0.003922 -0.003922 -1.000000

f 21/21/21 22/22/22 23/23/23

f 22/22/22 28/28/28 23/23/23

f 54/54/54 23/23/23 52/52/52

f 52/52/52 23/23/23 53/53/53

f 6/6/6 9/9/9 8/8/8

f 5/5/5 6/6/6 7/7/7

f 7/7/7 6/6/6 8/8/8

f 7/7/7 8/8/8 13/13/13

f 9/9/9 1/1/1 10/10/10

f 8/8/8 9/9/9 10/10/10

f 8/8/8 10/10/10 14/14/14

f 13/13/13 8/8/8 14/14/14

f 13/13/13 14/14/14 18/18/18

f 18/18/18 14/14/14 19/19/19

f 18/18/18 19/19/19 29/29/29

f 19/19/19 20/20/20 29/29/29

f 20/20/20 16/16/16 29/29/29

f 20/20/20 11/11/11 16/16/16

f 16/16/16 12/12/12 17/17/17

f 16/16/16 17/17/17 29/29/29

f 11/11/11 12/12/12 16/16/16

f 11/11/11 4/4/4 12/12/12

f 3/3/3 4/4/4 11/11/11

f 3/3/3 2/2/2 4/4/4

f 1/1/1 2/2/2 3/3/3

f 10/10/10 1/1/1 3/3/3

f 10/10/10 3/3/3 15/15/15

f 14/14/14 10/10/10 15/15/15

f 14/14/14 15/15/15 19/19/19

f 19/19/19 15/15/15 20/20/20

f 15/15/15 11/11/11 20/20/20

f 15/15/15 3/3/3 11/11/11

f 24/24/24 25/25/25 26/26/26

f 27/27/27 24/24/24 26/26/26

f 50/50/50 26/26/26 51/51/51

f 51/51/51 26/26/26 55/55/55

f 40/40/40 45/45/45 41/41/41

f 41/41/41 45/45/45 46/46/46

f 45/45/45 56/56/56 46/46/46

f 49/49/49 56/56/56 45/45/45

f 48/48/48 56/56/56 49/49/49

f 44/44/44 48/48/48 49/49/49

f 43/43/43 48/48/48 44/44/44

f 39/39/39 43/43/43 44/44/44

f 37/37/37 43/43/43 39/39/39

f 37/37/37 42/42/42 43/43/43

f 35/35/35 42/42/42 37/37/37

f 42/42/42 47/47/47 43/43/43

f 43/43/43 47/47/47 48/48/48

f 47/47/47 56/56/56 48/48/48

f 39/39/39 44/44/44 31/31/31

f 31/31/31 44/44/44 40/40/40

f 44/44/44 49/49/49 40/40/40

f 40/40/40 49/49/49 45/45/45

f 34/34/34 35/35/35 36/36/36

f 36/36/36 35/35/35 37/37/37

f 36/36/36 37/37/37 38/38/38

f 38/38/38 37/37/37 39/39/39

f 38/38/38 39/39/39 30/30/30

f 30/30/30 39/39/39 31/31/31

f 30/30/30 31/31/31 32/32/32

f 32/32/32 31/31/31 33/33/33

f 31/31/31 40/40/40 33/33/33

f 33/33/33 40/40/40 41/41/41

